<svg width="40" height="40" viewBox="0 0 40 40" fill="none" xmlns="http://www.w3.org/2000/svg">
<g clip-path="url(#clip0_1_1359)">
<path d="M0 0V9.65436H40V0H0ZM7.51416 8.94722L4.43933 0.705745H6.98959L10.0644 8.94733L7.51416 8.94722ZM15.7148 8.94722L12.64 0.705745H15.1903L18.2651 8.94733L15.7148 8.94722ZM23.5658 8.94722L20.4916 0.705745H23.0421L26.1163 8.94733L23.5658 8.94722ZM31.7666 8.94722L28.6923 0.705745H31.2427L34.3169 8.94733L31.7666 8.94722ZM0 23.6645H40V14.0101H0V23.6645ZM31.2426 14.7164L34.3168 22.958H31.7665L28.6922 14.7164H31.2426ZM23.0421 14.7164L26.1163 22.958H23.5658L20.4916 14.7164H23.0421ZM15.1903 14.7164L18.2651 22.958H15.7148L12.64 14.7164H15.1903ZM6.98959 14.7164L10.0644 22.958H7.51416L4.43933 14.7164H6.98959ZM32.6373 38.3223H33.6125V40H29.487V38.3223H30.3871V27.4614H8.63398V38.3223H9.57187V40H5.44643V38.3223H6.38432V27.4614H5.44643V25.7837H33.5749V27.4614H32.6373V38.3223Z" fill="#FF4500"/>
<path d="M0 0V9.65436H40V0H0ZM7.51416 8.94722L4.43933 0.705745H6.98959L10.0644 8.94733L7.51416 8.94722ZM15.7148 8.94722L12.64 0.705745H15.1903L18.2651 8.94733L15.7148 8.94722ZM23.5658 8.94722L20.4916 0.705745H23.0421L26.1163 8.94733L23.5658 8.94722ZM31.7666 8.94722L28.6923 0.705745H31.2427L34.3169 8.94733L31.7666 8.94722ZM0 23.6645H40V14.0101H0V23.6645ZM31.2426 14.7164L34.3168 22.958H31.7665L28.6922 14.7164H31.2426ZM23.0421 14.7164L26.1163 22.958H23.5658L20.4916 14.7164H23.0421ZM15.1903 14.7164L18.2651 22.958H15.7148L12.64 14.7164H15.1903ZM6.98959 14.7164L10.0644 22.958H7.51416L4.43933 14.7164H6.98959ZM32.6373 38.3223H33.6125V40H29.487V38.3223H30.3871V27.4614H8.63398V38.3223H9.57187V40H5.44643V38.3223H6.38432V27.4614H5.44643V25.7837H33.5749V27.4614H32.6373V38.3223Z" fill="url(#paint0_radial_1_1359)" fill-opacity="0.3"/>
<path d="M0 0V9.65436H40V0H0ZM7.51416 8.94722L4.43933 0.705745H6.98959L10.0644 8.94733L7.51416 8.94722ZM15.7148 8.94722L12.64 0.705745H15.1903L18.2651 8.94733L15.7148 8.94722ZM23.5658 8.94722L20.4916 0.705745H23.0421L26.1163 8.94733L23.5658 8.94722ZM31.7666 8.94722L28.6923 0.705745H31.2427L34.3169 8.94733L31.7666 8.94722ZM0 23.6645H40V14.0101H0V23.6645ZM31.2426 14.7164L34.3168 22.958H31.7665L28.6922 14.7164H31.2426ZM23.0421 14.7164L26.1163 22.958H23.5658L20.4916 14.7164H23.0421ZM15.1903 14.7164L18.2651 22.958H15.7148L12.64 14.7164H15.1903ZM6.98959 14.7164L10.0644 22.958H7.51416L4.43933 14.7164H6.98959ZM32.6373 38.3223H33.6125V40H29.487V38.3223H30.3871V27.4614H8.63398V38.3223H9.57187V40H5.44643V38.3223H6.38432V27.4614H5.44643V25.7837H33.5749V27.4614H32.6373V38.3223Z" fill="url(#paint1_radial_1_1359)"/>
</g>
<defs>
<radialGradient id="paint0_radial_1_1359" cx="0" cy="0" r="1" gradientUnits="userSpaceOnUse" gradientTransform="translate(10.5556 8.33333) rotate(51.0441) scale(33.5778 33.5778)">
<stop stop-color="white" stop-opacity="0.59"/>
<stop offset="0.697917" stop-color="white" stop-opacity="0"/>
<stop offset="1" stop-color="white" stop-opacity="0"/>
</radialGradient>
<radialGradient id="paint1_radial_1_1359" cx="0" cy="0" r="1" gradientTransform="matrix(-2.19178 -34.1667 -36.8345 21.8611 34.5205 35)" gradientUnits="userSpaceOnUse">
<stop stop-opacity="0.23"/>
<stop offset="0.861815" stop-opacity="0"/>
</radialGradient>
<clipPath id="clip0_1_1359">
<rect width="40" height="40" fill="white"/>
</clipPath>
</defs>
</svg>
