<svg width="60" height="60" viewBox="0 0 60 60" fill="none" xmlns="http://www.w3.org/2000/svg">
<circle cx="30" cy="30" r="19" fill="url(#paint0_linear_1_1354)"/>
<path d="M29.9999 3.75C36.9624 3.75 43.6396 6.51582 48.5628 11.439C53.486 16.3622 56.2518 23.0394 56.2518 30.0019C56.2518 36.9643 53.486 43.6416 48.5628 48.5648C43.6396 53.4879 36.9624 56.2538 29.9999 56.2538C23.0375 56.2538 16.3602 53.4879 11.437 48.5648C6.51386 43.6416 3.74805 36.9643 3.74805 30.0019C3.74805 23.0394 6.51386 16.3622 11.437 11.439C16.3602 6.51582 23.0375 3.75 29.9999 3.75ZM33.9374 19.8675C35.8874 19.8675 37.4699 18.5138 37.4699 16.5075C37.4699 14.5013 35.8837 13.1475 33.9374 13.1475C31.9874 13.1475 30.4124 14.5013 30.4124 16.5075C30.4124 18.5138 31.9874 19.8675 33.9374 19.8675ZM34.6237 40.9688C34.6237 40.5675 34.7624 39.525 34.6837 38.9325L31.6012 42.48C30.9637 43.1513 30.1649 43.6162 29.7899 43.4925C29.6198 43.4299 29.4776 43.3086 29.3889 43.1505C29.3002 42.9924 29.2709 42.8078 29.3062 42.63L34.4437 26.4C34.8637 24.3413 33.7087 22.4625 31.2599 22.2225C28.6762 22.2225 24.8737 24.8438 22.5599 28.17C22.5599 28.5675 22.4849 29.5575 22.5637 30.15L25.6424 26.5988C26.2799 25.935 27.0224 25.4663 27.3974 25.5938C27.5822 25.6601 27.7336 25.7962 27.8191 25.9728C27.9046 26.1495 27.9175 26.3527 27.8549 26.5388L22.7624 42.69C22.1737 44.58 23.2874 46.4325 25.9874 46.8525C29.9624 46.8525 32.3099 44.295 34.6274 40.9688H34.6237Z" fill="url(#paint1_linear_1_1354)"/>
<defs>
<linearGradient id="paint0_linear_1_1354" x1="30" y1="11" x2="30" y2="49" gradientUnits="userSpaceOnUse">
<stop stop-color="white"/>
<stop offset="1" stop-color="#9BCAF9"/>
</linearGradient>
<linearGradient id="paint1_linear_1_1354" x1="60.0087" y1="1.0137" x2="2.07498" y2="55.1397" gradientUnits="userSpaceOnUse">
<stop stop-color="#01ABAA"/>
<stop offset="0.333333" stop-color="#1181BF"/>
<stop offset="0.666667" stop-color="#2158AF"/>
<stop offset="1" stop-color="#7C38A1"/>
</linearGradient>
</defs>
</svg>
