<svg width="120" height="68" viewBox="0 0 120 68" fill="none" xmlns="http://www.w3.org/2000/svg">
<g clip-path="url(#clip0_1_1501)">
<path d="M21.9881 1.62322C26.9696 9.21202 28.6645 19.5927 25.7461 29.8474C22.9707 39.6003 16.6148 47.1564 8.95898 51.0253C10.5346 51.6662 11.886 52.652 12.8062 53.7056C14.3842 51.8991 17.2245 50.2843 20.301 50.2843C23.5012 50.2843 26.2554 51.9279 27.772 53.6755C29.2952 51.928 32.0582 50.2843 35.2634 50.2843C37.4999 50.2843 39.6709 51.1447 41.2979 52.3456C41.8931 52.7848 42.7258 52.5047 42.9476 51.7889C43.606 49.6641 43.9616 47.4013 43.9616 45.0535C43.9616 29.0396 26.7047 6.03143 22.9277 0.931087C22.908 0.904366 22.8864 0.878899 22.8634 0.854446C22.7462 0.730942 22.6112 0.678669 22.4797 0.678593C22.0721 0.678593 21.6975 1.18061 21.9881 1.62322Z" fill="white"/>
<path d="M20.4886 5.27944C15.5607 22.3033 0.442291 30.2457 0.442291 45.0537C0.442291 46.6709 0.611752 48.2474 0.931988 49.7665C1.06347 50.3899 1.67622 50.7708 2.2843 50.6312C11.6448 48.4827 20.0118 40.3831 23.2237 29.0966C25.6553 20.5525 24.6355 11.9256 21.06 5.21949C21 5.10695 20.893 5.05304 20.7867 5.05304C20.6586 5.05304 20.5314 5.13125 20.4886 5.27944Z" fill="white"/>
<mask id="mask0_1_1501" style="mask-type:luminance" maskUnits="userSpaceOnUse" x="0" y="0" width="45" height="68">
<path d="M0 0H44.4035V68H0V0Z" fill="white"/>
</mask>
<g mask="url(#mask0_1_1501)">
<mask id="mask1_1_1501" style="mask-type:luminance" maskUnits="userSpaceOnUse" x="1" y="7" width="23" height="43">
<path d="M1.58691 7.61517H23.3182V49.4866H1.58691V7.61517Z" fill="white"/>
</mask>
<g mask="url(#mask1_1_1501)">
<g opacity="0.529999">
<mask id="mask2_1_1501" style="mask-type:luminance" maskUnits="userSpaceOnUse" x="1" y="7" width="23" height="43">
<path d="M23.3182 17.2726C23.064 13.8909 22.2686 10.6183 20.9468 7.61517C18.5024 14.6252 14.3862 20.165 10.7054 25.1187C5.81255 31.7038 1.58691 37.391 1.58691 45.054C1.58691 46.5473 1.74052 48.0339 2.04437 49.4866C2.09522 49.4749 2.14545 49.4607 2.19622 49.4487C3.11642 41.1146 8.73312 34.6241 15.2097 27.1469C17.8161 24.1376 20.6279 20.889 23.3182 17.2726Z" fill="white"/>
</mask>
<g mask="url(#mask2_1_1501)">
<mask id="mask3_1_1501" style="mask-type:luminance" maskUnits="userSpaceOnUse" x="-2510" y="-2500" width="5020" height="5136">
<path d="M-2509.21 -2499.84H2509.14V2635.92H-2509.21V-2499.84Z" fill="url(#paint0_linear_1_1501)"/>
</mask>
<g mask="url(#mask3_1_1501)">
<path d="M23.3202 17.2722C23.0659 13.8905 22.2705 10.6178 20.9487 7.61475C18.5044 14.6248 14.3881 20.1646 10.7073 25.1183C5.81451 31.7034 1.58887 37.3905 1.58887 45.0536C1.58887 46.5469 1.74248 48.0335 2.04633 49.4862C2.09717 49.4745 2.14741 49.4603 2.19817 49.4483C3.11838 41.1141 8.73508 34.6237 15.2116 27.1465C17.818 24.1372 20.6299 20.8886 23.3202 17.2722Z" fill="url(#paint1_linear_1_1501)"/>
</g>
</g>
</g>
</g>
</g>
<path d="M29.3738 55.9281C29.0133 56.4735 28.4143 56.8013 27.7708 56.8013H27.7678C27.1229 56.8013 26.524 56.4702 26.1639 55.9226C25.2229 54.4909 22.8495 52.9704 20.3011 52.9704C17.4105 52.9704 15.1366 54.8263 14.3821 55.996C14.0304 56.5414 13.4414 56.8669 12.8063 56.8669C12.1714 56.8669 11.5825 56.5414 11.2307 55.9962C10.4764 54.8263 8.20232 52.9704 5.31184 52.9704C4.57381 52.9704 3.88471 53.0869 3.25404 53.2788C2.63623 53.4668 2.33996 54.1803 2.62168 54.7735C6.1485 62.2013 13.5916 67.3211 22.2032 67.3211C29.9577 67.3211 36.7637 63.1689 40.6169 56.9192C40.9819 56.3271 40.8872 55.5454 40.39 55.0646C39.3587 54.0678 37.6029 52.9704 35.2635 52.9704C32.7074 52.9704 30.3222 54.4936 29.3738 55.9281Z" fill="white"/>
<mask id="mask4_1_1501" style="mask-type:luminance" maskUnits="userSpaceOnUse" x="0" y="0" width="45" height="68">
<path d="M0 0H44.4035V68H0V0Z" fill="white"/>
</mask>
<g mask="url(#mask4_1_1501)">
<mask id="mask5_1_1501" style="mask-type:luminance" maskUnits="userSpaceOnUse" x="25" y="5" width="18" height="48">
<path d="M25.3926 5.21208H42.7775V52.3231H25.3926V5.21208Z" fill="white"/>
</mask>
<g mask="url(#mask5_1_1501)">
<g opacity="0.339996">
<mask id="mask6_1_1501" style="mask-type:luminance" maskUnits="userSpaceOnUse" x="25" y="5" width="18" height="48">
<path d="M25.3926 5.21208C31.2538 15.0878 38.2779 29.117 38.2779 39.6367C38.2779 43.4986 37.3717 47.1317 35.7766 50.3014C37.8142 50.4202 39.7655 51.2266 41.2629 52.3231C42.2387 49.8786 42.7775 47.2062 42.7775 44.4052C42.7775 31.7031 31.23 13.5682 25.3926 5.21208Z" fill="white"/>
</mask>
<g mask="url(#mask6_1_1501)">
<mask id="mask7_1_1501" style="mask-type:luminance" maskUnits="userSpaceOnUse" x="-2510" y="-2500" width="5020" height="5136">
<path d="M-2509.21 -2499.84H2509.13V2635.92H-2509.21V-2499.84Z" fill="url(#paint2_linear_1_1501)"/>
</mask>
<g mask="url(#mask7_1_1501)">
<path d="M25.3916 5.21178C31.2528 15.0875 38.277 29.1167 38.277 39.6364C38.277 43.4983 37.3707 47.1314 35.7756 50.3011C37.8132 50.4199 39.7645 51.2262 41.2619 52.3228C42.2377 49.8783 42.7765 47.2059 42.7765 44.4049C42.7765 31.7028 31.229 13.5679 25.3916 5.21178Z" fill="url(#paint3_linear_1_1501)"/>
</g>
</g>
</g>
</g>
<mask id="mask8_1_1501" style="mask-type:luminance" maskUnits="userSpaceOnUse" x="7" y="52" width="34" height="14">
<path d="M7.09766 52.9708H40.0877V65.4547H7.09766V52.9708Z" fill="white"/>
</mask>
<g mask="url(#mask8_1_1501)">
<g opacity="0.339996">
<mask id="mask9_1_1501" style="mask-type:luminance" maskUnits="userSpaceOnUse" x="7" y="52" width="34" height="14">
<path d="M34.1264 53.0722C30.3523 58.4877 24.3535 61.9896 17.5974 61.9896C13.7642 61.9896 10.1754 60.8611 7.09766 58.8967C10.866 62.936 16.1923 65.4549 22.0969 65.4549C29.8074 65.4549 36.5314 61.1598 40.0878 54.7928C39.0316 53.8785 37.3889 52.971 35.2613 52.971C34.8775 52.971 34.4983 53.009 34.1264 53.0722Z" fill="white"/>
</mask>
<g mask="url(#mask9_1_1501)">
<mask id="mask10_1_1501" style="mask-type:luminance" maskUnits="userSpaceOnUse" x="-2510" y="-2500" width="5020" height="5136">
<path d="M-2509.21 -2499.84H2509.14V2635.92H-2509.21V-2499.84Z" fill="url(#paint4_linear_1_1501)"/>
</mask>
<g mask="url(#mask10_1_1501)">
<path d="M34.1284 53.0715C30.3543 58.487 24.3554 61.9888 17.5993 61.9888C13.7662 61.9888 10.1774 60.8604 7.09961 58.896C10.8679 62.9353 16.1943 65.4542 22.0989 65.4542C29.8093 65.4542 36.5334 61.1591 40.0897 54.792C39.0335 53.8778 37.3908 52.9703 35.2633 52.9703C34.8794 52.9703 34.5003 53.0083 34.1284 53.0715Z" fill="url(#paint5_linear_1_1501)"/>
</g>
</g>
</g>
</g>
</g>
<path d="M69.3768 17.0324V19.1795H59.4706V3.20888H69.3768V5.34494H61.893V10.0155H68.9766V12.0741H61.893V17.0324H69.3768Z" fill="white"/>
<path d="M81.3486 11.5428H79.1208C78.9982 10.8862 78.7026 10.3512 78.234 9.93802C77.7725 9.52483 77.1777 9.31823 76.4495 9.31823C75.5411 9.31823 74.8129 9.68347 74.265 10.4139C73.7243 11.137 73.4539 12.1184 73.4539 13.3579C73.4539 14.6196 73.7243 15.6084 74.265 16.3241C74.8129 17.0398 75.5483 17.3976 76.4712 17.3976C77.1849 17.3976 77.7689 17.2095 78.2232 16.8332C78.6846 16.4495 78.9838 15.9183 79.1208 15.2394H81.3702C81.2476 16.4864 80.7358 17.4936 79.8345 18.2609C78.9405 19.0209 77.8122 19.4009 76.4495 19.4009C74.8129 19.4009 73.508 18.8623 72.5346 17.785C71.5613 16.7004 71.0747 15.2247 71.0747 13.3579C71.0747 11.5133 71.5613 10.0487 72.5346 8.96407C73.508 7.87206 74.8057 7.32605 76.4279 7.32605C77.841 7.32605 78.9874 7.73187 79.867 8.5435C80.7466 9.34775 81.2404 10.3475 81.3486 11.5428Z" fill="white"/>
<path d="M91.8388 17.785C90.8583 18.8623 89.5497 19.4009 87.9131 19.4009C86.2765 19.4009 84.9679 18.8623 83.9874 17.785C83.0068 16.7004 82.5166 15.2247 82.5166 13.3579C82.5166 11.4986 83.0068 10.0303 83.9874 8.953C84.9679 7.86837 86.2765 7.32605 87.9131 7.32605C89.5497 7.32605 90.8583 7.86837 91.8388 8.953C92.8193 10.0303 93.3096 11.4986 93.3096 13.3579C93.3096 15.2247 92.8193 16.7004 91.8388 17.785ZM87.9131 17.4308C88.8431 17.4308 89.5785 17.073 90.1193 16.3573C90.66 15.6416 90.9304 14.6418 90.9304 13.3579C90.9304 12.0815 90.6564 11.0854 90.1084 10.3697C89.5677 9.65395 88.8359 9.2961 87.9131 9.2961C86.9902 9.2961 86.2548 9.65395 85.7069 10.3697C85.1661 11.0854 84.8958 12.0815 84.8958 13.3579C84.8958 14.6418 85.1661 15.6416 85.7069 16.3573C86.2548 17.073 86.9902 17.4308 87.9131 17.4308Z" fill="white"/>
<path d="M66.0567 42.1118C63.8649 42.1118 62.1238 41.3702 60.8332 39.8871C59.5499 38.4041 58.9082 36.3935 58.9082 33.8553C58.9082 31.3318 59.5535 29.3286 60.844 27.8455C62.1346 26.3551 63.8721 25.6098 66.0567 25.6098C67.8303 25.6098 69.3263 26.1227 70.5448 27.1483C71.7632 28.1665 72.4734 29.5057 72.6752 31.1658H70.2744C70.0581 30.1402 69.5642 29.3212 68.7928 28.7088C68.0285 28.089 67.1165 27.7791 66.0567 27.7791C64.6364 27.7791 63.5008 28.3325 62.6501 29.4393C61.8065 30.5387 61.3848 32.0107 61.3848 33.8553C61.3848 35.722 61.8065 37.2051 62.6501 38.3045C63.4936 39.3965 64.6328 39.9425 66.0675 39.9425C67.149 39.9425 68.0574 39.6732 68.7928 39.1345C69.5354 38.5959 70.0293 37.8433 70.2744 36.8767H72.6861C72.3905 38.5295 71.6587 39.8171 70.4907 40.7394C69.3299 41.6543 67.8519 42.1118 66.0567 42.1118Z" fill="white"/>
<path d="M74.6759 41.8461V25.8755H77.0119V41.8461H74.6759Z" fill="white"/>
<path d="M86.1503 32.7596C85.6384 32.1988 84.9787 31.9184 84.1712 31.9184C83.3637 31.9184 82.6932 32.2025 82.1597 32.7706C81.6262 33.3314 81.3306 34.0582 81.2729 34.951H86.9614C86.9325 34.0508 86.6622 33.3203 86.1503 32.7596ZM86.9506 38.4262H89.1676C89.0017 39.4961 88.4682 40.3704 87.567 41.0493C86.6658 41.7281 85.5663 42.0675 84.2685 42.0675C82.6031 42.0675 81.2909 41.5325 80.332 40.4627C79.3803 39.3854 78.9045 37.9245 78.9045 36.0799C78.9045 34.25 79.3803 32.778 80.332 31.6639C81.2909 30.5497 82.5706 29.9926 84.1712 29.9926C85.7429 29.9926 86.9902 30.5202 87.9131 31.5753C88.8359 32.6231 89.2973 34.0323 89.2973 35.8032V36.6222H81.2621V36.7661C81.2621 37.7843 81.5396 38.5996 82.0948 39.212C82.6499 39.8244 83.3925 40.1306 84.3226 40.1306C84.9787 40.1306 85.5411 39.9757 86.0097 39.6658C86.4783 39.3559 86.792 38.9427 86.9506 38.4262Z" fill="white"/>
<path d="M95.094 40.1528C95.9159 40.1528 96.6044 39.8982 97.1596 39.3891C97.7219 38.8726 98.0031 38.2381 98.0031 37.4855V36.5668L95.2021 36.7439C94.5028 36.7956 93.9621 36.9727 93.5799 37.2752C93.205 37.5703 93.0176 37.9688 93.0176 38.4705C93.0176 38.9796 93.205 39.3891 93.5799 39.699C93.9621 40.0015 94.4667 40.1528 95.094 40.1528ZM94.4451 42.0453C93.3276 42.0453 92.4156 41.7207 91.709 41.0714C91.0097 40.4221 90.66 39.5773 90.66 38.5369C90.66 37.5187 91.0277 36.7107 91.7631 36.1131C92.4985 35.508 93.5403 35.1686 94.8885 35.0948L98.0031 34.9067V34.0102C98.0031 33.3609 97.8013 32.8555 97.3975 32.4939C96.9938 32.125 96.435 31.9406 95.7212 31.9406C95.0579 31.9406 94.5172 32.0918 94.099 32.3943C93.6881 32.6968 93.4285 33.1137 93.3204 33.645H91.1142C91.1791 32.5677 91.6333 31.6897 92.4768 31.0109C93.3204 30.3321 94.4307 29.9926 95.8078 29.9926C97.1848 29.9926 98.2807 30.3394 99.0954 31.033C99.9173 31.7266 100.328 32.6563 100.328 33.8221V41.8461H98.0896V39.9314H98.0356C97.7111 40.5733 97.2173 41.0861 96.554 41.4698C95.8979 41.8535 95.1949 42.0453 94.4451 42.0453Z" fill="white"/>
<path d="M102.599 41.8461V30.2029H104.827V32.1508H104.881C105.198 31.472 105.66 30.9445 106.266 30.5682C106.871 30.1919 107.603 30.0037 108.461 30.0037C109.708 30.0037 110.678 30.3874 111.37 31.1548C112.062 31.9147 112.408 32.9662 112.408 34.309V41.8461H110.061V34.7739C110.061 33.8885 109.856 33.217 109.445 32.7596C109.041 32.2947 108.439 32.0623 107.639 32.0623C106.817 32.0623 106.161 32.3353 105.671 32.8813C105.18 33.4273 104.935 34.1541 104.935 35.0616V41.8461H102.599Z" fill="white"/>
<path d="M66.2189 48.2764C68.4611 48.2764 70.2383 49.018 71.5505 50.501C72.8699 51.9841 73.5296 53.9947 73.5296 56.5329C73.5296 59.0711 72.8735 61.0817 71.5613 62.5648C70.2492 64.0405 68.4683 64.7783 66.2189 64.7783C63.9695 64.7783 62.1886 64.0405 60.8765 62.5648C59.5643 61.0817 58.9082 59.0711 58.9082 56.5329C58.9082 53.9947 59.5643 51.9841 60.8765 50.501C62.1886 49.018 63.9695 48.2764 66.2189 48.2764ZM66.2189 50.4568C64.7337 50.4568 63.5549 51.0028 62.6825 52.0948C61.8173 53.1868 61.3848 54.6662 61.3848 56.5329C61.3848 58.3923 61.8173 59.868 62.6825 60.96C63.5549 62.052 64.7337 62.598 66.2189 62.598C67.6969 62.598 68.8685 62.052 69.7337 60.96C70.606 59.868 71.0422 58.3923 71.0422 56.5329C71.0422 54.6662 70.606 53.1868 69.7337 52.0948C68.8685 51.0028 67.6969 50.4568 66.2189 50.4568Z" fill="white"/>
<path d="M85.3284 56.876H83.1006C82.978 56.2193 82.6824 55.6844 82.2138 55.2712C81.7523 54.858 81.1575 54.6514 80.4293 54.6514C79.5209 54.6514 78.7927 55.0167 78.2448 55.7471C77.704 56.4702 77.4337 57.4515 77.4337 58.6911C77.4337 59.9528 77.704 60.9416 78.2448 61.6573C78.7927 62.373 79.5281 62.7308 80.451 62.7308C81.1647 62.7308 81.7487 62.5427 82.2029 62.1664C82.6644 61.7827 82.9636 61.2514 83.1006 60.5726H85.35C85.2274 61.8196 84.7155 62.8267 83.8143 63.5941C82.9203 64.3541 81.792 64.7341 80.4293 64.7341C78.7927 64.7341 77.4878 64.1954 76.5144 63.1182C75.5411 62.0336 75.0545 60.5579 75.0545 58.6911C75.0545 56.8465 75.5411 55.3819 76.5144 54.2973C77.4878 53.2052 78.7855 52.6592 80.4077 52.6592C81.8208 52.6592 82.9672 53.0651 83.8468 53.8767C84.7264 54.6809 85.2202 55.6807 85.3284 56.876Z" fill="white"/>
<path d="M93.7422 55.4262C93.2303 54.8654 92.5706 54.585 91.7631 54.585C90.9556 54.585 90.2851 54.8691 89.7516 55.4372C89.218 55.998 88.9224 56.7248 88.8648 57.6176H94.5533C94.5244 56.7174 94.2541 55.9869 93.7422 55.4262ZM94.5424 61.0928H96.7594C96.5936 62.1627 96.0601 63.037 95.1589 63.7159C94.2577 64.3947 93.1582 64.7341 91.8604 64.7341C90.195 64.7341 88.8828 64.1991 87.9239 63.1293C86.9722 62.052 86.4963 60.5911 86.4963 58.7465C86.4963 56.9166 86.9722 55.4446 87.9239 54.3305C88.8828 53.2163 90.1625 52.6592 91.7631 52.6592C93.3348 52.6592 94.5821 53.1868 95.5049 54.2419C96.4278 55.2897 96.8892 56.6989 96.8892 58.4698V59.2888H88.8539V59.4327C88.8539 60.4509 89.1315 61.2662 89.6867 61.8786C90.2418 62.491 90.9844 62.7972 91.9145 62.7972C92.5706 62.7972 93.1329 62.6423 93.6016 62.3324C94.0702 62.0225 94.3838 61.6093 94.5424 61.0928Z" fill="white"/>
<path d="M102.686 62.8194C103.508 62.8194 104.196 62.5648 104.751 62.0557C105.314 61.5392 105.595 60.9047 105.595 60.1521V59.2334L102.794 59.4105C102.095 59.4622 101.554 59.6393 101.172 59.9418C100.797 60.2369 100.609 60.6353 100.609 61.1371C100.609 61.6462 100.797 62.0557 101.172 62.3656C101.554 62.6681 102.059 62.8194 102.686 62.8194ZM102.037 64.7119C100.919 64.7119 100.007 64.3873 99.3009 63.738C98.6015 63.0887 98.2519 62.2438 98.2519 61.2035C98.2519 60.1853 98.6196 59.3773 99.355 58.7797C100.09 58.1746 101.132 57.8352 102.48 57.7614L105.595 57.5733V56.6768C105.595 56.0275 105.393 55.5221 104.989 55.1605C104.586 54.7916 104.027 54.6072 103.313 54.6072C102.65 54.6072 102.109 54.7584 101.691 55.0609C101.28 55.3634 101.02 55.7803 100.912 56.3116H98.7061C98.771 55.2343 99.2252 54.3563 100.069 53.6775C100.912 52.9987 102.023 52.6592 103.4 52.6592C104.777 52.6592 105.873 53.006 106.687 53.6996C107.509 54.3932 107.92 55.3229 107.92 56.4887V64.5127H105.682V62.598H105.627C105.303 63.2399 104.809 63.7527 104.146 64.1364C103.49 64.5201 102.787 64.7119 102.037 64.7119Z" fill="white"/>
<path d="M110.191 64.5127V52.8695H112.419V54.8174H112.473C112.79 54.1386 113.252 53.6111 113.857 53.2348C114.463 52.8585 115.195 52.6703 116.053 52.6703C117.3 52.6703 118.27 53.054 118.962 53.8214C119.654 54.5813 120 55.6328 120 56.9756V64.5127H117.653V57.4405C117.653 56.5551 117.448 55.8836 117.037 55.4262C116.633 54.9613 116.031 54.7289 115.231 54.7289C114.409 54.7289 113.753 55.0019 113.263 55.5479C112.772 56.0939 112.527 56.8207 112.527 57.7282V64.5127H110.191Z" fill="white"/>
</g>
<defs>
<linearGradient id="paint0_linear_1_1501" x1="23.322" y1="28.55" x2="1.59073" y2="28.55" gradientUnits="userSpaceOnUse">
<stop stop-color="white"/>
<stop offset="1" stop-color="white" stop-opacity="0"/>
</linearGradient>
<linearGradient id="paint1_linear_1_1501" x1="23.3201" y1="28.5505" x2="1.5889" y2="28.5505" gradientUnits="userSpaceOnUse">
<stop stop-color="white"/>
<stop offset="1" stop-color="white"/>
</linearGradient>
<linearGradient id="paint2_linear_1_1501" x1="38.0746" y1="16.4705" x2="10.0235" y2="85.8678" gradientUnits="userSpaceOnUse">
<stop stop-color="white"/>
<stop offset="1" stop-color="white" stop-opacity="0"/>
</linearGradient>
<linearGradient id="paint3_linear_1_1501" x1="38.0732" y1="16.4708" x2="10.022" y2="85.8681" gradientUnits="userSpaceOnUse">
<stop stop-color="white"/>
<stop offset="1" stop-color="white"/>
</linearGradient>
<linearGradient id="paint4_linear_1_1501" x1="39.0297" y1="16.8552" x2="10.9785" y2="86.2524" gradientUnits="userSpaceOnUse">
<stop stop-color="white"/>
<stop offset="1" stop-color="white" stop-opacity="0"/>
</linearGradient>
<linearGradient id="paint5_linear_1_1501" x1="39.028" y1="16.8552" x2="10.9768" y2="86.2525" gradientUnits="userSpaceOnUse">
<stop stop-color="white"/>
<stop offset="1" stop-color="white"/>
</linearGradient>
<clipPath id="clip0_1_1501">
<rect width="120" height="68" fill="white"/>
</clipPath>
</defs>
</svg>
