<svg width="16" height="16" viewBox="0 0 16 16" fill="none" xmlns="http://www.w3.org/2000/svg">
<path fill-rule="evenodd" clip-rule="evenodd" d="M0.00888888 2.83775C0.00888888 2.61557 0.102539 2.40248 0.269238 2.24537C0.435937 2.08826 0.66203 2 0.897778 2H15.1111C15.3469 2 15.573 2.08826 15.7397 2.24537C15.9064 2.40248 16 2.61557 16 2.83775V12.3245C16 12.7689 15.8127 13.195 15.4793 13.5093C15.1459 13.8235 14.6937 14 14.2222 14H1.77778C1.30628 14 0.854097 13.8235 0.520699 13.5093C0.187301 13.195 0 12.7689 0 12.3245V3.10919C0 3.06898 0.00296295 3.02988 0.00888888 2.9919V2.83775ZM1.77778 4.70092V12.3245H14.2222V4.70092L9.88533 8.78833C9.38526 9.25949 8.7071 9.52418 8 9.52418C7.2929 9.52418 6.61474 9.25949 6.11467 8.78833L1.77778 4.70092ZM3.17511 3.6487H12.8249L8.62933 7.6029C8.54678 7.6808 8.44874 7.74259 8.34084 7.78475C8.23293 7.82691 8.11726 7.84861 8.00044 7.84861C7.88363 7.84861 7.76796 7.82691 7.66005 7.78475C7.55214 7.74259 7.45411 7.6808 7.37156 7.6029L3.17511 3.6487Z" fill="#FF4500"/>
</svg>
