<svg width="16" height="12" viewBox="0 0 16 12" fill="none" xmlns="http://www.w3.org/2000/svg">
<path fill-rule="evenodd" clip-rule="evenodd" d="M0.00888888 0.837755C0.00888888 0.615568 0.102539 0.402482 0.269238 0.245373C0.435937 0.0882634 0.66203 0 0.897778 0H15.1111C15.3469 0 15.573 0.0882634 15.7397 0.245373C15.9064 0.402482 16 0.615568 16 0.837755V10.3245C16 10.7689 15.8127 11.195 15.4793 11.5093C15.1459 11.8235 14.6937 12 14.2222 12H1.77778C1.30628 12 0.854097 11.8235 0.520699 11.5093C0.187301 11.195 0 10.7689 0 10.3245V1.10919C0 1.06898 0.00296295 1.02988 0.00888888 0.991902V0.837755ZM1.77778 2.70092V10.3245H14.2222V2.70092L9.88533 6.78833C9.38526 7.25949 8.7071 7.52418 8 7.52418C7.2929 7.52418 6.61474 7.25949 6.11467 6.78833L1.77778 2.70092ZM3.17511 1.6487H12.8249L8.62933 5.6029C8.54678 5.6808 8.44874 5.74259 8.34084 5.78475C8.23293 5.82691 8.11726 5.84861 8.00044 5.84861C7.88363 5.84861 7.76796 5.82691 7.66005 5.78475C7.55214 5.74259 7.45411 5.6808 7.37156 5.6029L3.17511 1.6487Z" fill="url(#paint0_linear_1_864)"/>
<defs>
<linearGradient id="paint0_linear_1_864" x1="17.1449" y1="-0.625395" x2="4.18719" y2="15.516" gradientUnits="userSpaceOnUse">
<stop stop-color="#01ABAA"/>
<stop offset="0.333333" stop-color="#1181BF"/>
<stop offset="0.666667" stop-color="#2158AF"/>
<stop offset="1" stop-color="#7C38A1"/>
</linearGradient>
</defs>
</svg>
