<svg xmlns="http://www.w3.org/2000/svg" width="22" height="22" fill="currentColor" viewBox="0 0 22 22">
  <path d="M18.48 15.84v.88h1.32a1.32 1.32 0 0 1 0 2.64h-1.32v1.32a1.32 1.32 0 0 1-2.64 0v-6.16a1.32 1.32 0 0 1 1.32-1.32h3.52a1.32 1.32 0 0 1 0 2.64h-2.2Zm-11.88.88a3.52 3.52 0 0 1-3.52 3.52h-.44v.44a1.32 1.32 0 0 1-2.64 0v-6.16a1.32 1.32 0 0 1 1.32-1.32h1.76a3.52 3.52 0 0 1 3.52 3.52Zm-2.64 0a.88.88 0 0 0-.88-.88h-.44v1.76h.44a.88.88 0 0 0 .88-.88Zm11 .88a4.4 4.4 0 0 1-4.4 4.4H8.8a1.32 1.32 0 0 1-1.32-1.32v-6.16A1.32 1.32 0 0 1 8.8 13.2h1.76a4.4 4.4 0 0 1 4.4 4.4Zm-2.64 0a1.76 1.76 0 0 0-1.76-1.76h-.44v3.52h.44a1.76 1.76 0 0 0 1.76-1.76ZM.44 9.68V2.2A2.2 2.2 0 0 1 2.64 0H13.2a1.32 1.32 0 0 1 .934.387l6.16 6.16c.247.248.386.583.386.933v2.2a1.32 1.32 0 0 1-2.64 0v-.44h-5.28a1.32 1.32 0 0 1-1.32-1.32V2.64H3.08v7.04a1.32 1.32 0 0 1-2.64 0Zm13.64-5.61V6.6h2.53l-2.53-2.53Z"/>
</svg>
