<svg width="16" height="16" viewBox="0 0 16 16" fill="none" xmlns="http://www.w3.org/2000/svg">
<g clip-path="url(#clip0_15_795)">
<path d="M4.6582 0.0078125C4.95568 0.0448641 5.15868 0.197733 5.23145 0.254883C5.34462 0.343783 5.43476 0.442989 5.49805 0.519531C5.62792 0.676631 5.75385 0.869694 5.86719 1.05859C6.09901 1.44498 6.35409 1.94403 6.58691 2.43555C6.82143 2.93064 7.04461 3.44122 7.21094 3.86035C7.29366 4.06882 7.36608 4.26536 7.41992 4.43066C7.44662 4.51263 7.47316 4.59786 7.49316 4.67969C7.50807 4.74068 7.53998 4.87631 7.54004 5.02832C7.54004 5.47914 7.37174 5.86122 7.2041 6.14355C7.03581 6.42699 6.82212 6.68472 6.6377 6.89551C6.42218 7.14181 6.28464 7.28441 6.11426 7.48633C5.95972 7.66949 5.86933 7.79943 5.82227 7.89355L5.82129 7.89551C5.82507 7.91969 5.84435 7.99315 5.92676 8.125C6.10567 8.41123 6.41629 8.72879 6.84375 9.15625C7.00152 9.31402 7.34472 9.65358 7.7207 9.90723C7.90974 10.0347 8.05955 10.1074 8.16016 10.1367C8.16456 10.138 8.16902 10.1386 8.17285 10.1396C8.25919 10.0874 8.37035 10.0067 8.51367 9.88574C8.71559 9.71536 8.85819 9.57782 9.10449 9.3623C9.31528 9.17788 9.57301 8.96419 9.85645 8.7959C10.1388 8.62826 10.5209 8.45996 10.9717 8.45996L11.0811 8.46582C11.1864 8.47547 11.2745 8.49563 11.3203 8.50684C11.4021 8.52684 11.4874 8.55338 11.5693 8.58008C11.7346 8.63392 11.9312 8.70634 12.1396 8.78906C12.5588 8.95539 13.0694 9.17857 13.5645 9.41309C14.056 9.64591 14.555 9.90099 14.9414 10.1328C15.1303 10.2462 15.3234 10.3721 15.4805 10.502C15.557 10.5652 15.6562 10.6554 15.7451 10.7686C15.8104 10.8517 15.9999 11.105 16 11.4746C16 13.6126 14.4168 15.1405 12.8994 15.6465C12.2248 15.8714 11.6113 16 10.9209 16C10.2467 16 9.55 15.877 8.71387 15.668C7.89063 15.4622 7.08733 15.2371 6.21973 14.7744C5.3528 14.312 4.46901 13.6389 3.41504 12.585C2.36107 11.531 1.68799 10.6472 1.22559 9.78027C0.762864 8.91267 0.537849 8.10937 0.332031 7.28613C0.122997 6.45 0 5.75331 0 5.0791C4.32265e-06 4.38873 0.128645 3.7752 0.353516 3.10059C0.859507 1.58316 2.38738 0 4.52539 0L4.6582 0.0078125ZM4.12109 2.03809C3.22334 2.21245 2.51274 2.94824 2.25098 3.7334C2.07298 4.26739 2 4.66158 2 5.0791C2 5.51281 2.07862 6.02541 2.27246 6.80078C2.46948 7.58882 2.6473 8.19587 2.99023 8.83887C3.33358 9.48263 3.86882 10.2106 4.8291 11.1709C5.78938 12.1312 6.51737 12.6664 7.16113 13.0098C7.80413 13.3527 8.41118 13.5305 9.19922 13.7275C9.97459 13.9214 10.4872 14 10.9209 14C11.3384 14 11.7326 13.927 12.2666 13.749C13.052 13.4872 13.7868 12.776 13.9609 11.8779C13.9455 11.8685 13.9299 11.8578 13.9131 11.8477C13.6071 11.6641 13.1741 11.441 12.709 11.2207C12.2473 11.002 11.7753 10.7968 11.4014 10.6484C11.2134 10.5738 11.0602 10.5173 10.9502 10.4814L10.9473 10.4805C10.9296 10.4889 10.9061 10.4989 10.8779 10.5156C10.7586 10.5864 10.6129 10.7001 10.4209 10.8682C10.2644 11.0051 10.0034 11.2447 9.80273 11.4141C9.58302 11.5994 9.30971 11.8124 9.00098 11.9668C8.49451 12.2199 7.98033 12.1683 7.60059 12.0576C7.2216 11.9472 6.87662 11.751 6.60156 11.5654C6.049 11.1926 5.58614 10.7268 5.42969 10.5703C5.05144 10.1921 4.55614 9.70405 4.23145 9.18457C3.89035 8.63881 3.60988 7.84602 4.0332 6.99902C4.18757 6.69029 4.40056 6.41698 4.58594 6.19727C4.75527 5.99658 4.99487 5.73562 5.13184 5.5791C5.29985 5.38708 5.41355 5.24135 5.48438 5.12207C5.5012 5.09372 5.51013 5.06949 5.51855 5.05176V5.0498C5.48271 4.93976 5.42616 4.78662 5.35156 4.59863C5.20316 4.22466 4.99797 3.75266 4.7793 3.29102C4.55897 2.82592 4.33591 2.39286 4.15234 2.08691C4.14197 2.06963 4.13077 2.05384 4.12109 2.03809Z" fill="url(#paint0_linear_15_795)"/>
</g>
<defs>
<linearGradient id="paint0_linear_15_795" x1="16.0018" y1="0.270373" x2="0.553883" y2="14.7029" gradientUnits="userSpaceOnUse">
<stop stop-color="#01ABAA"/>
<stop offset="0.333333" stop-color="#1181BF"/>
<stop offset="0.666667" stop-color="#2158AF"/>
<stop offset="1" stop-color="#7C38A1"/>
</linearGradient>
<clipPath id="clip0_15_795">
<rect width="16" height="16" fill="white"/>
</clipPath>
</defs>
</svg>
